<svg width="48" height="48" viewBox="0 0 48 48" fill="none" xmlns="http://www.w3.org/2000/svg">
<path d="M5.715 2.28H42.285V4.575H40.005V6.855H42.285V11.43H44.58V45.72H46.86V9.15H44.58V2.28H46.86V0H5.715V2.28Z" fill="white"/>
<path d="M10.29 45.72V11.43H24V9.15002H5.715V11.43H8.01V45.72H5.715V48H44.58V45.72H10.29Z" fill="white"/>
<path d="M37.725 16.005H35.43V9.15001H33.15V6.85501H35.43V4.57501H24V6.85501H26.295V9.15001H28.575V31.995H30.855V29.715H33.15V27.435H35.43V29.715H37.725V31.995H40.005V9.15001H37.725V16.005Z" fill="white"/>
<path d="M37.725 6.85498H35.43V9.14998H37.725V6.85498Z" fill="black"/>
<path d="M21.72 4.57501H8.00999V6.85501H21.72V4.57501Z" fill="black"/>
<path d="M5.715 43.425H3.435V45.72H5.715V43.425Z" fill="white"/>
<path d="M5.715 2.28003H3.435V4.57503H5.715V2.28003Z" fill="white"/>
<path d="M3.435 9.15001H5.715V6.85501H3.435V4.57501H1.14V43.425H3.435V9.15001Z" fill="white"/>
</svg>
